<svg xmlns="http://www.w3.org/2000/svg" width="217" height="199" fill="none"><path fill="#e1d9fa" d="M194.7 86.5a86.1 86.1 0 1 0-103 84.5l16.6 27 16.5-26.8a86.2 86.2 0 0 0 70-84.7z"/><path fill="#6b40e4" d="M120.9 140.5a71.9 71.9 0 0 0-20.3-28.7 27.1 27.1 0 0 0-3.7-3.2l-1.4-1h.1a62.4 62.4 0 0 0-5-3.5l-.4-.2a96.2 96.2 0 0 0-37.9-12.5l-.1.1 34.4 25 4.5 3.3 29.5 21.5.3-.8zm-25.7-33.1z"/><path fill="#a68cef" d="m95.3 107.5-.1-.1zm49.5-45.1-4-8.5a9.1 9.1 0 0 0-7.7-6c-5.9-.7-11.7-1.5-17.6-1.6A29.5 29.5 0 0 0 93 55.2L69.7 78.6c-.6.6-1.2 1.2-2 1.7L56.2 88l-3.8 3.3c7.2.9 23.8 3.7 38 12.5l.3.2a62.4 62.4 0 0 1 5 3.5l1.2 1 .3.2c1.5 1.2 2.9 2.3 3.4 3a71.4 71.4 0 0 1 20.4 28.7l3.3-10.4a43 43 0 0 1 2.9-7c2.7-5 5.9-9.7 8.5-14.7a251 251 0 0 0 9.8-20.2 32 32 0 0 0-.6-25.8zm-58.5 50.4a9.5 9.5 0 1 0 0 19 9.5 9.5 0 0 0 0-19z"/><path fill="#00c4cc" d="M92.4 67.6a14.4 14.4 0 0 0 14.4-14.4 14.4 14.4 0 0 0-14.4-14.4 14.4 14.4 0 0 0-14.5 14.4 14.4 14.4 0 0 0 14.5 14.4z"/><path fill="#b2edef" d="M83.6 64.5A14.3 14.3 0 0 0 107 53.2c0-2-.4-4-1.2-5.8-4.7 1.4-9 4-12.8 7.8l-9.3 9.3z"/><path fill="#e1d9fa" d="M17.2 137.2h.2v.3h-.2v-.3zM3 103.9l.2.1v-.3l-.2.2zM1.5 81.8v.2l.2-.2-.1-.2a.4.4 0 0 0-.1.2zm7 38.7-.1.2.2.1v-.2s-.2-.1-.2 0zm1.7 4.9.2.1v-.2l-.2-.1v.2zm-8.4-47v-.2l-.2.2a.7.7 0 0 0 .1.2l.1.1.1-.1v-.2zm21.4 65h-.1v-.2l-.1-.2v-.2h-.2v-.3h-.2v-.4l-.3-.1v-.2s.2.1.2 0v-.1h-.2l-.2-.2a.6.6 0 0 0-.2 0l-.2-.1v.2h-.2v-.3h-.2v-.3l.2.1v-.2a.5.5 0 0 0-.2 0l-.4-.2v-.4h.1l.2.2v-.5l-.4-.1v.2h-.1l-.2-.1-.2-.1s-.2-.1-.2 0v.1s-.1-.1-.2 0v-.5l.2.1v-.2h.1l.2.2v-.2l-.2-.1H20v-1h-.3v-.2l-.2-.1v.2h-.2v-.5h-.2v-.2l-.2-.1v-.5a.5.5 0 0 0-.2 0l-.2-.1v-.2l-.1-.1-.4-.2v-.2l.2.1.2.1v-.4h-.2l-.2-.2h-.2v-.3l-.2-.1v-.2l-.2-.1c0-.1-.1 0-.1 0v-.7H17l-.2-.2v-.2l.2.1v-.2l-.3-.3v-.2l.1.1v-.2l.2.1v-.1l-.2-.1v-.2l-.1-.1-.2-.1v-.4l-.2-.1-.1-.1-.2-.1-.4-.2v-.4h.2l.2.2v-.2l-.2-.1v-.2h-.2l-.2-.2v-.2h-.1v-.3H15v-.3h-.2l-.1-.2v-.4h-.2l-.2-.2h-.1l-.4-.3v-.2l.2.1.2.1v-.4h-.1l-.2-.2v-.1l-.2-.1v-.2a.3.3 0 0 1 0-.2l.1-.2-.2-.1v-.2a.6.6 0 0 0-.1-.1l-.2-.1-.2-.1v-.2l.1-.2-.2-.1v-.2l-.1-.1-.2-.2v-.2h-.1l-.2-.2v-.2l-.2-.1v-.2l-.1-.1-.2-.2v-.2l.2.2v-.2l-.1-.2v-.1l-.2-.2v-.2h-.1v-.3l-.2-.1-.1-.1v-.2l-.2-.1v-.2h.2v-.1l.2.1v-.2l-.1-.1v-.2l-.2-.1v.2l-.2-.1a.7.7 0 0 1-.2-.2l-.3-.2v-.2a.5.5 0 0 0 0-.2v-.2l.2.1v-.4l-.2-.2-.2-.1-.2-.2v-.3l-.1-.2v-.7h-.2v.1l-.2-.1-.2-.1v-.2s.2.1.2 0v-.1l.1-.2-.2-.1.1-.2v-.2l-.1-.1v-.2l-.1-.2h-.2v.1l-.2-.1v-.4l.1-.2v-.2l-.2-.1v.2l-.1.2-.2-.2h-.1v-.3l-.1-.1a.6.6 0 0 1 0-.2l.1.1.1-.2.1.2v-.2l.1-.2-.1-.2h-.1v-.3l-.1-.1-.2-.1v-.2l.1-.2.2.1v-.2l-.1-.1v-.2l-.1-.1v.2l-.2-.1v-.2l-.1-.2-.4-.2.1-.2-.1-.2v-.4l.2.2v-.4l-.2-.3-.1-.1-.2-.2v-.7l-.1-.1-.2-.2-.1-.1v-.7l-.2-.1v-.2s.1-.1 0-.2v-.4l-.2-.1-.1-.1-.2-.2v-.2l.2.2.1-.2v-.2a.5.5 0 0 0 .1-.2l-.1-.2v-.2l-.1-.1-.2-.2.1-.2v-.1l.2-.2-.2-.2-.1-.1-.2-.2.1-.2-.2-.1-.1-.2c-.1 0 0-.1 0-.2v-1.2l-.1.2-.2-.1-.1-.2v-.2l-.1-.1v-.2l.1-.2.1-.2v-.2l.2-.2-.2-.1-.1-.2v-.2l.2.2v-.2l.1-.2-.1-.2v.2l-.2-.1-.1-.2-.1.2-.1-.1-.1-.2-.2-.1.1-.2.1.1.1.2.1-.2.1.1.1-.2-.1-.1-.1-.2-.2-.1.1-.2-.1-.1v-.2l.2.1v-.3l-.2-.2-.2-.3v-.2l.1-.2.1.2.1-.2v-.4H5l-.1-.2v-.5l-.1-.1s.1-.2 0-.2v-.5l-.2-.2-.1-.2v-.5l.1.1a.7.7 0 0 1 .1.2l.2.2v-.2l-.1-.2s.1-.1 0-.2v-.2l-.2-.1.1-.2-.1-.2v-.7l.1-.1v-.2l-.2.2-.1-.2-.1-.2v-.2l.2-.2v.2l.2-.2-.1-.1-.2-.2v-.2l-.2-.2-.1-.1V94l-.2-.2.1-.1.1-.2.1.1.1-.1v-.2a.6.6 0 0 1 0-.2l.1-.1-.1-.2-.1-.2v-.3L4 92l.1-.2.1-.1.1-.2-.1-.2-.1-.2V91l.2-.2-.2-.2.1-.1v-.4l-.1-.2-.1-.1V89l.1-.2v-.1l-.2-.2.1-.2V88l.1-.2.1.2.1-.2.1-.2v-.1l-.2.1v-.1l-.2.1v-.3l.1-.2V87H4v-.5l-.2-.1.1-.2.1.2.1-.2.1.2.1.1.2-.3-.2-.4v-.1l-.2-.2v-.2l.2-.2-.1-.2.1-.2-.1-.1-.1-.2.1-.2a.7.7 0 0 0 .1-.1v-.6l-.1-.1.1-.2-.1-.2.1-.1.1.1.1-.1v-.2l-.2-.2a.6.6 0 0 1 0-.1v-.2l.2-.2-.1-.2-.1-.1-.1.1-.1-.1.1-.2.1-.2V81l.1.2.2-.2v.2l.2.1v-.1l-.1-.4-.1-.2-.1-.2-.1-.1.1-.2v-.3l.2-.2-.1-.2v-.2l.2-.1.1.1.1-.1.1-.2v-.2l-.2.2v-.2l-.2.2-.1.2-.1-.2.1-.2v-.4l.2-.1v.1l.2-.1-.1-.2v-.2l-.2-.2v.2l-.2-.2.2-.2v-.2l.2-.1v-.4l.2-.2-.1-.2v-.2s-.2-.1-.1-.2v-.1l.2.2v-.4s-.1-.2 0-.2v-.2l.2-.1-.1-.2.1-.2v-.4l.2-.1V74l-.2-.2.2-.1-.1-.2.1-.2v-.2l-.1-.2-.1-.2.1-.1v.2l.2-.2v-.2l-.1-.2-.1-.1.1-.2.1-.1v-.2l-.1-.2.1-.2V71l-.2-.4.1-.1.2-.2v.2l.1.2.2-.1V70l.1-.2.3-.3v-.2l-.2-.2-.1.2-.1.1-.1-.2V69l.2-.2v-.3l.2-.1.2-.2-.1-.2v-.5l.1-.2v-.2l-.1-.2v-.5l.1-.1.2-.2.1-.1.1.2.2-.2.1-.1v-.2l-.2.1-.1-.2v-.2l-.1-.2.1-.1.2-.2.1-.1c.1-.1 0-.1 0-.2v-.1a.6.6 0 0 0 0-.2V64l-.1-.2.1-.2.1-.1.2-.2v-.2l-.1-.2.1-.1.2-.1v-.2l-.1-.2.1-.2V62l.1-.1v-.2l-.2.1v-.5l.1.2.2-.2.1-.1.2-.2-.1-.2V60l.2-.1s-.1-.2 0-.2v-.2l.1.2h.2v-.6l.1-.1v-.2l.1-.1v-.4l-.1-.2.1-.2v.1l.1-.2v.2l.2-.1v-.2a.5.5 0 0 1 0-.2l-.1-.2.1-.1.2-.1v.4l.2-.2V57l-.1-.2.2-.2-.1-.2-.2.2v-.2l.2-.2-.1-.1.2-.2v.2l.2-.1.2-.1v-.2l-.1-.2v-.7l.3-.3v.2l.1.2-.2.2v.1l.4-.2v-.2l-.1-.2v-.2l.1-.1V54a.5.5 0 0 0 0-.2l-.1-.2.1-.1.2-.1v-.6l-.2.1v-.2l.1-.1.2-.1v.2a.7.7 0 0 0 .2-.2.7.7 0 0 0 .2 0l.3-.3v-.4l.1-.1.2-.2v-.4l-.2.2v-.4l.1-.1.2-.2v.2h.2v-.3l.1-.1V50l-.2.1V50h.1l.2-.2.2-.1.2-.2h.1v.1l.2-.1V49l-.2.1V49l-.2.1V49l.3-.3h.2l.2-.2V48l-.1-.2.2-.1.1-.1v-.2l.2-.2h.2v-.5l-.1-.2h.2l.1-.2v-.5l.1-.1.2-.1.2-.1V45l.1.2.2-.1v-.4l.1-.1v-.4l.1-.1v-.2h.2l.1-.2v-.2h.2V43h.2l.2-.2v-.6h.1l.2-.2v.4h.2V42h.1v-.5h.2v-.3h.2V41l.2-.1v-.4H17l-.2.2v-.2l.2-.1.2-.1.2-.1.2-.1V40h-.2l.2-.1v-.4l.2-.1V39h.2v-1h.2v-.9H18v-.4l-.4.2-.2.1v.4l-.2.1v.2l-.2.1v-.2l-.2.1v-.2l-.2.1v.4l-.2.1-.2.1v.2l-.2.1-.2.1-.2.1v.7h-.2v-.1l-.1.1v.6l-.2.1V40l-.2.1-.2.1-.1.1v.2l-.2.1v1h-.2l-.1.2v-.4l.1-.1V41h-.1l-.2.2v.1l-.2.1v.7a.5.5 0 0 1-.2.1l-.2.1v.2l-.2.1-.2.1v.9h-.1v.3l-.2.1v-.4h-.2l-.1.2v.2H12v.7a.6.6 0 0 1-.2 0v-.1l-.2.1-.1.1v.4l.1-.1v.4l-.1.1-.2.1-.3.3v.6l.2-.1v-.3h.2v.4h-.2l-.1.2v.2l-.2.1V47a.7.7 0 0 0-.2.1v.2l-.1.2v-.2l-.4.2v.4l.2-.1v.2l.2-.1v.5h-.3l-.1.2v-.4l-.1-.2-.2.1v.4l.1.2v.2l-.1.2v.1l-.2.2V49l-.2.1v.4l-.1.1v.7l-.1.1v.2l-.2.2s-.1.1-.1 0v-.2l-.2.1v.2l-.2.1v.2l-.1.1v.5l-.1.2v.1l-.2.2v.2h-.1v.3l.2-.1v.2h-.2v.5H8v-.1l-.2.1-.2.1v.2s.1.2 0 .2a.4.4 0 0 1-.1.1h-.2v.5l.1.2h-.2v-.1l-.2.1-.1.1v.4l.2-.1.2-.1v.4l-.1.1-.2.1v-.2l-.2.2v-.2h-.2l-.2.2a.5.5 0 0 0 0 .2l.1.2-.1.1a.5.5 0 0 0 0 .2v.2l.1.2-.1.2v.1l-.1.2-.2.1a.4.4 0 0 0-.1.2.5.5 0 0 0 0 .2l.1.4v.2l.2.4-.2.2v-.2l-.2.1-.1.1-.2.2v.2l-.1.1v.2l.1.2-.1.2-.2.1-.1.2v.2l.2-.2v.2l-.1.2v.1l-.1.2v.5l-.1-.2a.4.4 0 0 0-.2.2l-.1.1v.2s.1.2 0 .2v.2l-.2.1-.2.2v.1l.1.2a.5.5 0 0 1 0 .2v.5l-.1.1-.2.2s.1.1 0 .2v.3l-.2.1.1.2v.2l.1.2v.2l-.1.2v.2l-.2.3v-.2l-.1-.2v-.2l-.1-.2-.2.1v.2l.1.2-.1.2v.2l-.1.1v.4l.2.2.1-.2c.1 0 0 .2 0 .2v.2l-.2.1-.2.2.1.2a.4.4 0 0 1-.1.1l-.2.2.1.2-.1.1v.2l-.1.1-.2.2a.6.6 0 0 0 .1.2v.2l.2.2-.2.1-.1.2a.6.6 0 0 0 0 .2l.1.2v.2a.4.4 0 0 1 0 .1l-.2.1-.2.2.1.2-.1.1v.2l.1.2.1.2-.1.2-.2.2.1.2-.1.1v.4l-.2-.2-.1.2v.7l.1.2-.1.2c-.1 0 0 .1 0 .2v.4l-.1.1v.2l.2-.2v.2l.1.2-.1.2v-.2l-.2.2-.1.2v.2l.2-.2v.5s.1.2 0 .2v.2l-.1-.2a.4.4 0 0 0-.1.2v.5l-.1.2-.2.2.1.2-.1.2v.1l.1.2.1.2-.1.2-.1.2-.2.1.1.2v.4l.1.2.1.2-.1.2v.2l-.2.3v-.2a.5.5 0 0 1-.2-.2v.4l-.1.2-.1.1v.2l.2.2v.2l.2-.2v.4l-.2.2a.7.7 0 0 0 .1.2.5.5 0 0 1 .1.2v.1l-.2.2V83a.7.7 0 0 0-.2.2l.1.1.1.2.1.2-.1.2v.1l.2.2-.2.2.1.1.2.4v.2l-.2-.2-.1.2-.1-.2-.1.2-.1.2v.5l.1.1.1.2.2.4v.1l-.2-.1v.5l-.1.2-.1.1a1 1 0 0 0 0 .2.6.6 0 0 1 .2.2l-.1.1-.1.2v1.6l.2.1.1.2.1.2v.9l-.1.2.1.1v.2l-.2-.1-.1.2-.1.1.1.2a.7.7 0 0 1 .1.2v.4l.2.1.1.2v.2a.5.5 0 0 0-.2.2l.1.2.2.1-.1.2a.7.7 0 0 1-.1.2l-.2-.2v.6l.1.2a1 1 0 0 0 .1.2l.1-.2.1.1a.7.7 0 0 1 0 .2l-.2.2.2.2a.7.7 0 0 1-.1.2l-.1.2v.3l.1.2v.4s.2 0 .2.2l-.1.1-.1.2-.2.4.1.2.2.2v-.2l.1-.2v-.2l.2.2v.2l-.1.2-.1.1v.2l-.2.2.2.2v-.2a.4.4 0 0 1 .2.2v.5l-.1.2v.2l.2.2v.5l.1.2v-.2a.4.4 0 0 1 .2.2l.1.2v.2l-.1.1-.2-.1v.2l-.2.4.2.1-.1.2.1.2a.4.4 0 0 0 .2.1l.1.2.2.1-.1.2.1.2v.2l-.1.2-.2-.2v.2l-.1.2a.4.4 0 0 0 .1.2l.2.1.1.2.1.1v.2l.1.1.2.2-.1.2v.3l.2.2.1.1.2.2a.6.6 0 0 1 0 .2l-.2.2.2.1a.6.6 0 0 1 0 .2l-.2.2.2.1.1.2v.2l-.1.2v.5l.1.2v.1l.1.2.2.1v.4l.2.1.2.2v.2s-.2.1-.1.2l.1.1.2.2v.2l-.2-.2v.2l-.2-.1-.2-.2v.2l.1.1.2.2.1.1.2.2.1.1v.4l-.1.2-.2-.1v.2l.1.1.2.2.1.1.2.2.1.1v.3c.1 0 0 .2 0 .2l.2.2v.5l-.1-.1v.3l.2.2.2.1v-.2l.2.2.1.1v.2l-.2-.1v.1l-.2-.1-.1-.1-.2-.2v.2l.1.1v.6l.1-.2.2.1.1.2v.2l.1.1v.2l.1.2.2.1s-.1.2 0 .2l-.1.2.1.1.2.2v.2l-.1.2.1.1.2.2v.1l-.1.2.1.2h.1l.4.4v.1l-.1.2s-.2-.1-.2 0v.1l-.2-.1-.1.4.2.1.1.2v.1l.2.2v.2h.1v-.1l.2.1.2.1.3.3v.2l-.2-.1v.2l-.2-.1-.1-.2v.2s0 .2.1.1v.2l.2.2h.1l.2.2.2.1v.2l.1.1c.1 0 0 .2 0 .2l.2.2.3.2v.4l-.2-.1v.4h.1l.2.2v.4l.1.1.2.1v-.2l.2.2H9v.3l-.2-.1v.2l-.2-.2h-.1v.1l.3.3.2.1.1.1.2.1v.3h.2v-.1h.2v.3l.1.1v.4l-.2-.1v.2l-.2-.1v.2h.1l.2.2.3.3v.6h.1v-.1l.2.1.2.1v.4h-.2l-.2-.2v.4l.1.1.2.2h.2v.3l.1.1v.2l.2.2v.2h.1l.2.2v.2l.1.1h.2v.3l.2.1v.2l.1.1c.1.1 0 .2 0 .2l.2.1v.3a.6.6 0 0 0 .1 0l.2.2v.2h.1v.5s-.2-.1-.2 0v.2a.6.6 0 0 0 .2.1l.2.1.2.1v.4l.1.1.2.1.2.1v.5h.1v.3h.2v.3l.2.1.2.1.1.1v.4l.2.1v.4l.2.1.2.1v.4l.2.1v.7l.4.2h.2l.2.2v.2h.1l.2.2h.2v.3l-.2-.1v.4l.2.1a.7.7 0 0 1 .2.1l.2.1.2.1v.8l.2.1.2.1.2.1v.5l-.2-.1v.2l-.2-.1v.2l.3.2h.2l.2.2v.2h.2l.2.2h.2v.2l.2.1v.4a.5.5 0 0 0 .1.2h.2v-.3h.2v.5h.2v.4H19l.1.4h.2l.2.1v-.2h.2v-.1h.1l.2.1v.2l.2.1v.2h.3l.2.1a1.5 1.5 0 0 0 .2.1h.1l.2.2h.2v.2l.3.1v.2c0 .1.1 0 .2 0v.3l-.2-.1h-.2v.1h-.2v-.4a.6.6 0 0 0-.2-.1l-.2-.1h-.2v-.3h-.2l-.2-.1v.2h-.2v.2l.4.1h.2l.2.1v.2l.2.1a.5.5 0 0 1 0 .2v.2h.3l.2.2v-.2h.2l.1.1v.2l.1.2h-.2l-.2-.2v.5h.3l.1.1a.6.6 0 0 0 .2 0v-.1h.2l.2.1.2.1v-.2c.4-.7.4-.8.3-.8zM5.6 71.7a.4.4 0 0 0 .1-.2V71l-.1.1-.1.2v.2l.1.2zM7 109v-.2l-.1-.1v.4zm16.8 34.7h-.2v.1h-.2v.1l.2.1h.2v-.1zM5.5 73.1l-.1-.2-.1.2v.2l.2-.2zm7.1 52v-.5l-.1-.1-.2-.1v.2h.2v.3l.1.1zm193-.7v.2l.2-.1v-.2l-.2.1zm7.8-45.8-.2-.1v.3l.2.2v-.4zm.1 3.3.1.2.1-.2-.1-.1-.1.1zm1.7-10.8v-.4c-.1 0 0-.1 0-.2l-.2-.1v.2l-.1.2.1.1.2.2zm-3 32.3v.2l.2-.2v-.2l-.2.2zm4.4-16.7v.2l-.2-.2v.2a.4.4 0 0 1-.1-.2v-.1a.6.6 0 0 0 .1-.2v-.2l-.1.2-.1-.2V86l-.1-.2v-.2l.2.2v-.2l.1.2.1.2.3-.4-.3-.3V85l-.2-.2-.1-.1.1-.2.1-.2-.1-.2v-.4l-.2-.1.1-.2.1-.2-.1-.2.1-.2-.1-.2-.1-.1v-.6l.2.2v-.4l-.2-.2-.1-.1v-.2l.2-.2-.1-.2-.2-.2v.2l-.2-.1.1-.2.1-.2-.1-.2v-.2l.2.2.1-.2.1.2.1.1.1-.2-.2-.3-.1-.2-.1-.2-.2-.1.1-.2v-.4l.1-.2-.1-.1V78l.2-.2.1.1.1-.2.1-.2-.1-.1-.1.2-.1-.2-.1.2-.1.2-.2-.2.1-.2V77l.2.1v-.3l-.2-.2v-.2l-.2.2v-.5l.1-.2V75l-.2-.1-.1-.2v-.2l.2.2v-.4l-.2-.2.1-.2v-.5l-.1-.2V73l.1-.2-.1-.2-.1-.1v-.2l-.1-.2V72l-.2-.2-.2-.1s.1-.2 0-.2l.2.1.1-.2a.4.4 0 0 0-.1-.1l-.2-.1-.1-.2v-.2l.1-.2-.1-.1-.2-.2.1-.2-.2-.1-.2-.3v-.2l.1-.2.2.1.1.2v-.7l-.1-.1v-.2l.2-.4-.2-.1-.1-.2-.1.2v.2l-.2-.1-.2-.2.1-.2v-.3a.5.5 0 0 1 0-.2V67l.2-.2-.2-.2-.1-.1v-.2l-.1-.1v-.4l-.2-.1-.2-.2s.1-.1 0-.2v-.7l.2.1a.6.6 0 0 0 0-.2l.1-.1-.1-.2s-.1.2 0 .2l-.2-.1-.2-.2-.1-.1v-.4l.1-.2-.1-.2V63l-.1-.1-.2-.2-.1-.1v-.4l.1-.2-.1-.1-.2-.2.1-.2v-.2l-.1-.1-.1-.2-.1-.1v-.2l-.1-.1v.2l-.2-.2-.2-.1v-.2l.2.1v-.2l.1-.2v-.4l-.2-.2-.2-.1v-.4c-.1 0 0-.1 0-.1l-.2-.2v-.2l.2.2v-.2l-.1-.2V58l-.1-.1v-.2l-.1-.1v-.2l-.2-.2-.1-.1a1 1 0 0 0-.2-.1v-.2l-.1-.1v-.2s.2.1.2 0v-.1l-.1-.1-.2-.2h-.1v-.3l.1-.2.1.2s.2.1.2 0v-.1l-.1-.1-.2-.2h-.2V55l-.1-.1v.2l-.2-.1v-.2l-.1-.1v-.2h.2v-.1l-.2-.1-.1-.2h-.2v-.3h-.2l-.1-.2V53l.2.1a.8.8 0 0 1 .2.1v.2l.1.1.1-.4-.2-.1-.1-.1-.2-.1v-.2l-.1-.2h-.2l-.2-.2v-.4l-.1-.1-.2-.2h-.2v.1l-.1-.1v-.4l.2.1v-.8l-.1-.1-.2-.1v-.5l-.3-.2v.2l-.2-.1-.1-.1V49l.2.1V49h-.2v-.3a.7.7 0 0 0-.1-.1l-.2-.2v.3l-.2-.2v-.3l.1-.2v-.5l.2.2v-.3h-.1l-.2-.2v.2l-.2-.1v.2l-.2-.1v-1l-.3-.1-.1-.1v-.5l-.1-.1v-.4l-.2-.2h-.1l-.2-.2v-.4l-.2-.1h-.1l-.2-.2v-.6l-.2-.1-.2-.1V43l.2.1V43a.6.6 0 0 0-.2 0l-.1-.2v-.2l-.2-.1h-.2V42l-.1-.1v-.4l-.2-.1v-.3a.7.7 0 0 0-.2 0l-.2-.2v-.4l-.2-.1-.4-.2V40h.2l.2.2v-.3h-.2v-.3h-.2l-.1-.2v-.2h-.2v-.3l-.2-.1v-.2l-.1-.1-.2-.1v.4h-.2v-1.1h-.2v.1h-.2v-.3h-.2l-.2-.2v-.2l-.2-.1-.2-.1v-.2l-.2-.1-.2-.1-.2-.1-.2-.1v-.2l-.2-.1a.5.5 0 0 0-.2-.1l-.1-.1-.2-.1v.2l-.2-.1h-.2v.5l.2.1.2.1v.2l.2.1v.2h-.2v.1h-.2v.1l.4.2v.4h.1v.7h.2l.2.2h.2v.2h-.2v.1l.2.1.2.1.2.1v.2h-.2v.5l.2.1v.2l.1.1.2.1.2.1.2.1.1.1v.4l-.1-.1-.2-.1v-.2l-.2-.1v.4h.2v.3h.2l.1.2h.2v.5h.2v.5h.1l.2.1.2.1.2.1s-.1.2 0 .2l.1.1v.2h-.1l-.2-.2v.4l.2.1v.2l.1.1.2.1.2.1v.2h-.2v.3l.2.1s.1.1.1 0v-.1l.2.1s.2.1.2 0v.9l.3.2.2.1h-.2v-.3l.2.1.2.1v.4l.1.1c.1.1 0 .2 0 .2s-.2-.1-.2 0v.1l.2.1v.2l-.2-.1v.5l.3.1v-.2l.1.1v-.2l.2.1.2.1v.6l-.2-.1-.2-.1-.2-.1v.2h.2l.1.2.2.1.2.2v.2h.1v.3l-.2-.2v.2l.2.2h.2v.3l.1.1.2.1.1.1v.2l.2.2v.4l-.2-.2h-.2v.1l.1.1v.2l.2.1v.2l.1.2h.2l.2.2v.2l.1.1v.2l.2.1v.2l.1.2V52h.2v.3l.2.1.1.1v.2l-.2-.1v.4l.2.1.1.1v.2l-.2-.1v.2l.2.1a.7.7 0 0 1 .1.1l.2.2v.2l-.2-.2v.4l.1.2h.2v-.1l.4.2v.4l-.2-.1v.2l-.2-.1v.4l.3.2v.2l.2.1.2.2-.1.2h.1v.5l-.1.2h.1l.4.4h.1l.3.3v.2s-.2-.1-.2 0v.2a.6.6 0 0 0-.1.2l.1.1v.2l.1.1.2.2v.2l-.1.2v.4l.1-.2.2.1v.5l.2.2.1.1v.2l-.2-.1v.2a.6.6 0 0 0 0 .2v.1l.2.2v.3l-.1.2.1.2.2.1.1.2v.2l.1.1.1.2v.4l.1.1v.2l.1.1v.4l.2.1.2.2.1.1v.2l.1.2v.4l-.2-.2-.2-.1-.1-.2-.2-.1v.2l.1.1.2.2s-.1 0 0 .2v.3l.2.1.1.2.2.1v-.2l.1.2v.2l-.1.2v1l.1.2v.2l-.1.2.1.1.2.2.1.1v.2l-.1.2.1.2.2.1.1.1a.7.7 0 0 1 0 .2 1.5 1.5 0 0 0-.1.2v.6l.1.1.2.2.1.1v.2l-.1.2.1.1v.2l.1.2v.2l-.2-.2v.6l.1.1.2.2.1.1v.5l.2.2-.1.2.1.1v-.2l.2.2.1.1v.2l-.2-.1a.5.5 0 0 0 0 .2l-.1.2.1.1V74l.2.2v.2l.2.2-.1.1-.1-.1V76l.1.2.1.2.1.1v.2l-.1.2-.1.2.1.2v.3l.2.2v.4l.1.2-.2.3v-.1l-.2-.2v.5l-.2.2.2.2v.2l.2.1.1-.2.1.2v.2l-.2.2.1.2.2.1-.1.2-.1.2v.3l.1.2v.5l-.2.2.2.1v.2l.2.2v.3l.2.2-.1.2v.1l.3.4v.2l-.2-.2-.1.2-.1-.2-.1.2-.1.1v.5l.2.2v.2l.3.3v.2l-.2-.2v.5l-.2.2v.3l.1.2v.2l-.2.2.1.1V88l-.1.1a.6.6 0 0 0 0 .2l.2.2v.1l.2.2-.1.2v.7l-.2.1v.4l-.1-.2-.2.2v.2a.6.6 0 0 1 .1.2l-.1.2.1.1v.2l.2.2-.1.1-.2.2.1.2.1.2v.1l-.2.2-.1-.2-.1.2v.5l.1.2.2-.2v.4l-.2.1.1.2-.1.2-.1.1v.9l.1.2-.1.2-.1.1-.3.4.1.1.1.2.2-.2v-.1l.2-.2.1.2-.1.2-.1.1-.2.2v.2l-.2.2v.1l.2-.1.1.2.1.2-.1.1-.1.2-.2.2a.7.7 0 0 0 .1.2l.1.2v.2l-.1.2v.2l.2-.2.1.2v.4s-.1.2-.2.1v-.2l-.2.2-.2.3v.7l.1.2.1.2-.1.2v.4l-.2.2v-.2l-.2.1-.1.2v.2l.1.1.1.2v.6l.1.2-.1.1a.4.4 0 0 1-.2.2l.1.2v.2l.1.2a.5.5 0 0 1 .1.1l-.1.2-.2.1.1.2-.1.2-.2.1v.2l.2.2-.2.2-.1.1-.2.2v.5l-.1.1v.2l.1.2-.1.2v.2l.1.2v.2l-.2.2v.1l.1.2-.1.2v-.2l-.2.1-.1-.2v-.2l-.2.2v.2l.1.2.1.2v.2l.1.2-.1.1-.1.2-.2.1v-.2l-.2.2v.4l.1.1v.2a.6.6 0 0 1 .1.2l-.1.2v.2l-.1.1v.2l-.1.2v.2l-.1.1v-.2l-.2.2v.2l.1.1v.2l.2-.1v.5l-.1-.2-.2.2v-.4l-.1-.2-.1.1v.2l-.1.2-.2.1v.2l.2-.1v.2l.1.2-.1.1v.2l-.1.2v.5l-.2.1v.7l-.2.1v.5l-.2.2v.3l.2.4-.2.2s-.1.1-.1 0v-.1l-.3.1v-.2l-.3.3v.4h-.1v.3l-.1.1v.2l.2-.1v.4l.2.4s-.2.1-.2 0v-.1l-.2.1v-.2l-.1-.2-.2.1v.2l-.1.2c-.1 0 0 .1 0 .2v.2l.1.1v.4c-.1 0 0 .1 0 .2h-.2v.3l.1.4h-.2l-.1.2v-.2l-.2.1-.2.2v.2l-.1.2h-.2v.5l.2-.1v.5l-.1-.2-.2.1v-.4l-.2.1v.7l.1.2v.2l-.1.2v.1h.2v.1l-.2.1v.2l-.1.2h-.2v-.1l-.2.1v-.2l-.2.1v.4l.1.4-.2.2-.3.2v.2l.2-.1v.3l-.1.2h-.2v-.2l-.4.2v.4s.1.2 0 .2v.2l-.2.1v.2l-.2.2v.3l-.1.2v.4h-.1v.3h-.2v.3h-.1v.3h-.2v.5c-.1 0 0 .2 0 .2l-.2.1-.2.1v-.2l-.2.1-.2.1v.6l-.1.1-.2.1v.6l-.2.1h-.2v.3h-.1v.3h-.2v.7h-.2l-.1.2v.2h-.2l-.2.1v.4l-.2.1-.2.1v.2l-.2.1-.3.2v.8l-.2.1v.6l-.2.1v-.2l-.1.1-.2.1v.8h-.2l-.2.2h-.2v.7h-.2l-.2.2v-.2h-.2v-.1h-.2v1h-.2v.7h-.2v.2h-.2l-.2.2h-.2v.2h.1l.2-.1v.2h-.2l-.2.1v.2l-.2.1h-.2v-.1l-.3.1v.4h.1v.2l.2-.1v.4h-.3v.2l-.2.1v1l-.1.2h-.2v.3h-.2v.2h-.3v-.1l.1-.2s-.2.1-.2 0v-.1h.2l.2-.2v-.5l.3-.1v-.4h-.2v-.1h-.1v.5l-.1.1v.2l-.2.1v.2h-.2l-.2.2v.2h.1c.1 0 0 .1 0 .2v.2h-.2l-.2.1v-.4l-.4.2v.6l.1-.1v.6l.2-.1c0-.1.1 0 .2 0v-.3h.2l.2-.1.2-.1v-.2h.2v-.3h.2l.2-.1v-.2s.2-.1.2 0v.1h.2v-.6l.1-.2h-.2v-.2h.2v-.2l.2-.1v.2l.2-.1v-.6h.3l.1-.2v.4l.4-.1v-.4h-.2v-.5l.1-.2-.2.1v-.2h.2l.2-.1v.2l.2-.1v.4h.2v-.5h.2l.2-.1h.2l.2-.2v-.2h.2v-.3h-.2v-.1l.2-.1.2-.1v-.2l.2-.1v-.2l.2-.1.2-.1a.7.7 0 0 0 .2-.1v-.4h.1v-.7h.3v.1a.7.7 0 0 0 .2-.1l.2-.1v-.5h.2v-.3l.1-.1v-.4l.2-.1.2-.1.2-.1v-.4l.2-.1v.2l.2-.1v-.6l.2-.1v.2l.2-.1v.2a.7.7 0 0 0 .2-.1v-.2l.2-.1v-.4l.2-.1.1-.1V131h.2l.2-.2v.4h.1v-.3h.2v-.5h.2v-.3h.1v-.3h.2v-.4l.2-.1.2-.1v-.5l-.1-.2v-.4l.1-.1v.4l.2-.1.2-.2v-.3l.1-.2v-.2h.2l.2-.2.1-.1v-.2l.2-.1v-.4l-.1-.2.2-.2h.1v-.3l.2-.1v-.4l.1-.2c.1 0 0-.1 0-.1v-.2l.1-.2v-.2h.2v-.3s-.1-.1 0-.2h.1v.1l.2-.1v-.2l.1-.1v-.2l.2-.2v-.2h.1v-.5h.2v-.3l.1-.1v.2s.1-.2.2-.1v.2l.2-.2v-.2h.1v-.3l-.2.2v-1a.7.7 0 0 0 .3 0l.1-.2v.2l.2-.1.2-.2v-.4l-.1-.2v-.2h.1a.8.8 0 0 0 .2-.2v-.2l.1-.1.2-.2v-.1l.1-.2v-.2l-.2.2v-.7l.1.2h.2l.2-.2v-.2l.1-.1.2-.1v-.4a.6.6 0 0 0 0-.2v-.1s-.2.1-.2 0v-.1l.1-.1.2-.2h.2l.2-.2v-.2l-.1-.2-.2.1-.2.2v-.5c.1 0 0-.1 0-.2l.2-.1v.2l.2-.2v.2l.2-.1.1-.2v-.9l.1-.1.2-.2v.2l.2-.1v-.6l-.1.2v-.4a.5.5 0 0 0 0-.2v-.7l.2-.1.1-.2v.2a.4.4 0 0 0 .2-.1l.1-.2v-.4l-.1-.2a.6.6 0 0 1 0-.2l.1-.1v-.2l.1-.2.1-.1v-.4l-.1-.2.1-.1.2-.2v-.2l-.1-.2.1-.1.2-.2v-.7l-.2-.2.2-.1v.2l.2-.2.1-.1.2-.2v-.3a.6.6 0 0 0 0-.2v-.4l.2-.1.2-.2-.1-.2v-.1l-.2-.2.2-.2v-.2l-.2-.2.2-.1v-.2a.4.4 0 0 1 0-.2l.2-.1v-.4l.2-.1v-.2a.4.4 0 0 1-.2.2v-.2l-.1-.2.1-.2v-.3l.2-.2.2-.1.1-.2.2-.1-.1-.2v-.3l.1.1.1-.1.2-.2-.1-.2-.1.2-.1-.2v-.2l-.2.2v-.2l-.2-.2v-.2l.1-.2v.2l.1.2.2-.2v.2l.2-.1-.1-.2v-.2l-.2-.2.2-.2-.1-.2.1-.2v.2l.2-.1v-.2l-.1-.2-.2-.4.1-.2.2-.2v.2l.2-.1v-.6l-.1-.2v-.4l.1-.1v-.6l.1-.2V97l-.2-.2v-.5l.1-.2.1.2.1.2v.2l.2-.2s-.1-.1 0-.2v-.1a.7.7 0 0 0 0-.2l-.1-.2v-.4l.1-.2V95l.2-.2-.1-.2-.1.2-.1-.2-.1-.2V94l.2-.2.1.2.1-.1v-.2l-.2-.2v-.2l-.2-.2v-.5l-.1-.2.1-.1.1-.2.1.2.1-.2v-.4l.2-.1a.7.7 0 0 0-.1-.2l-.1-.2.1-.2v-.2a.6.6 0 0 1-.2-.2l.1-.1.2-.2V90l-.1-.2.1-.2.1-.2v-.8a.6.6 0 0 1-.1-.2l.1-.2v-.6l.1-.2v-.2l-.2-.1.1-.2v-.4l.1-.1.1.1.1-.1.1-.2c.3.7.2.6.1.6zm-1-14-.2-.2v.2l.1.1v-.2zM5 98l.1.1s.1-.1 0-.1a.4.4 0 0 0 0-.2s-.1-.2-.2-.1v.2l-.1.1.1.2V98zm208.5 11.6v-.2l-.2.2.1.2.1-.2zm-18.7 34.8v.2h.1l.2-.1v-.2h-.1v-.1h-.2v.2zm21-46 .1.2.2-.2-.1-.2V98l-.2.2-.1.1v.2l.2-.1zm-8 27h-.2v.3h-.1v.3l.1-.1.2-.2v-.3zm.1-5.5h-.2v.3l.2-.1v-.2zm-8.6 16.5v.2h.2v-.3l-.2.1zM88.8 116.1v.1h.2-.2zm2.8-3.8v-.1h-.2.1v.1h.1zm-1.6 6v-.1h-.2.2zm1.2-5.6v.1a.5.5 0 0 0 .1 0h-.1zm5.8-3.9h-.1l-.1-.1c0-.1 0 0 0 0l-.5-.5-.8-.5h-.2v-.1h-.1v-.2H95l.1.2.1.1h-.3.1v.3h-.2v-.1c0-.1 0 0 0 0l-.2-.1v.2l.1.1h-.1v.1h-.1a.5.5 0 0 0 .1 0l.1.2h-.1.1-.5l.1.1c0 .1 0 0 0 0H94a.6.6 0 0 0 .1.1h.1l.1.2h-.2v-.1H94v-.1h-.2v.4h-.2v.1l.1.1.1.2-.1-.1h-.2l-.1-.1v.1h-.2v.1h.1v.1h-.1v.2-.1h-.4v.1l.1.1v.1h-.2v.2l.1.2h-.2v-.1h-.1c-.1 0 0-.1 0-.2h-.2v.3h.1c.1 0 0 0 0 0l.1.1h-.3c-.1 0 0 0 0 0h-.1v.1H92l.1.1H92v.1l.1.1h-.4v.1l.1.1h-.2v.1h-.1l-.1-.1v.1a.3.3 0 0 1 0 .2s0 0-.1 0v.1h.1v.1h.1-.3a.6.6 0 0 0 .1 0v.2l-.2-.1v.1H91h.1-.1v.1h.1v.1h-.2v.2h-.2v-.1h-.4v.1l.1.1c0 .1.1 0 .1 0v.1h-.1v.1h-.2v.1h-.1v.1l.1.1h-.1l.1.1h-.1l.2.2h-.2c-.1 0 0 0 0-.1H90l-.1-.1h-.1v.2l.2.2v-.1h-.4v.1h-.2v.1h-.1v.2h.1v.2h-.5.1-.1v.1l.1.1h-.1v.2h-.1v-.2h-.2v.2h.2v.1h-.4v.1h-.1v.1H88h.1v.1h.2l.1.1 1.4.7h-.4a.5.5 0 0 0 .2 0v.1h-.2v.2l.1.1v.1h-.1v-.1h-.3v.1l.1.2H89v-.1h-.2v.2h.1v.2h-.2.1v.1l.1.1h-.3v.1h-.2v.1l.1.1h-.1l.1.1h-.1v.1h-.2v-.1l-.2-.1.1.1v.1h.1v.2H88l-.1-.1-.2-.1.1.1v.1h.1v.2h-.1v.1h-.1l-.1-.1v.1l.1.1h.1v.1l1.4 1-.1-.2-.1-.1h.2v-.1l-.1-.2h.2-.1.2-.1a.6.6 0 0 0 .1 0v-.1l-.1-.1h.4v-.1h.2l-.1-.2v-.1h.2a.6.6 0 0 0 .2 0H90v-.2h.4v-.1h.1l.1.1a.6.6 0 0 0 .1 0h-.1v-.1l-.1-.1h-.1v-.1h-.1v-.2.1l.1.1a.5.5 0 0 0 .1 0v.1h.2l-.1-.1v-.1h.2-.1l-.1-.2h.2v.1h.2l-.1-.1v-.1h.1v-.1h.1v-.1H91v-.1h.1l.1.1v.1a.6.6 0 0 0 .2 0v-.2a.5.5 0 0 0 .1 0 .6.6 0 0 0 .1 0l-.1-.1-.1-.2h.2v.2h.1v-.2h-.1v-.1h-.1v-.2a.6.6 0 0 0 .2 0v.1a.6.6 0 0 0 .1 0h.2l-.1-.1v-.1h.2v-.1h.1a.6.6 0 0 0 .1 0v-.5a.5.5 0 0 0 .1 0h.1v-.1a.5.5 0 0 0 .2 0h.1l.1.1h-.1v-.2h-.2.2l-.2-.1v-.2l.1.1h.1v.1h.1l.2.1-.1-.1v-.2h.1v-.1a.5.5 0 0 0 .2 0v-.2h.2v-.1h-.1.2v-.1c0-.1-.1 0-.1 0l-.1-.1h.1v-.1h.1l.1.1c.1.1 0 0 0 0l.1.2h.1v-.2h-.1v-.1h-.1v-.1h.5l.1.1h-.1l-.1-.2h-.2v-.1h.2v.1h.1v-.1l-.1-.1c-.1-.1 0 0 0 0H94h.4v-.2.1a.5.5 0 0 0 .2 0h-.1a.6.6 0 0 0 .2 0v-.1h.2l-.1-.2h.1v-.1l-.1-.1h.1l.1.1v-.1l-.1-.1h.2l-.1-.1v-.2h.1c.1 0 0 .1 0 .1l.1.1a.6.6 0 0 0 .1 0v-.1a.5.5 0 0 0 .1 0h.2-.2l-.1-.1-.1-.2h.4v-.3h.3l.1.1h.1-.1v-.1l-.1-.1h.2v-.2c0-.1 0 0 0 0a.6.6 0 0 0 .1 0h.1l-.1-.1a.5.5 0 0 0 .1 0h.1l-.1-.1h.1v-.1h-.1v-.1l-.1-.1h.1l.1.1h.2l-.1-.2a.5.5 0 0 0 .1 0h.2a.5.5 0 0 0 .1 0v-.3h.2l-.1-.1h.2v.1h.2-.1v-.1l-.1-.1v-.1h.1a.6.6 0 0 0 .1 0 .5.5 0 0 0 .1.1v-.1l-.1-.1v-.1h.1l.1.2h.2-.1l-.1-.2a.6.6 0 0 0 .1 0h-.1v-.2h.1l-.1-.1h-.1c-.1 0 0-.1 0-.1h.2v.1h.4-.1.2l-.1-.2H98l-.1-.1h.2v.1h.1v-.1H98v-.2h.1l.1.1h.2c.1 0 0 .1 0 .1h.1l-1.5-.8zm-5.7 7.8a.6.6 0 0 0 .1.1v-.1h-.2v-.1.1zm3-4.1v-.1H94l.1.1zm-6.3 5v.1zm6.1-4.7-.1-.1.1.1z"/><path fill="#8966e9" d="M122.8 116.2h-.5l-.2-.1v-.2h.2l.1-.1-.2-.1a.2.2 0 0 1-.1 0h-.1v-.4a.2.2 0 0 0-.1 0h-.1l-.2-.2h.1v-.1h.2v.2h.2v.4h.3v-.5h-.2v-.1h-.2v-.1c0-.1-.1 0-.2 0v-.2h-.1v-.2h-.3c-.1 0 0 .1 0 .1h-.1l-.1-.1v-.2h.1v-.4h-.1v.1h-.2v-.2l.1-.2c-.1 0 0-.1 0-.1h-.2v-.1h-.2v-.2h-.1l-.2-.1v-.1h.2v-.2h-.1l-.1-.1h-.1v-.4h-.2l-.1-.1h-.1v-.2l-.1-.1c0-.1-.1 0-.1 0v-.2h-.2l-.2-.1v-.7h-.2v-.4h-.2v-.2h-.2c-.1-.1 0-.2 0-.2h-.2v-.3h-.2l-.2-.1v-.2h-.2v-.7h-.2v-.1h-.1v-.1h-.1v-.2h-.1v-.1h-.2v-.2h-.2v-.2h-.1v-.1h-.1v-.2h-.3v-.3a.6.6 0 0 1 .2 0v-.1h-.3v-.2h-.4l-.1-.1v-.1c0-.1.2 0 .2 0v-.2h-.1v-.2h-.1v.1h-.1v-.1h-.2l-.2-.1v-.1h.2v-.2h-.1v.1h-.2v-.2h-.1l-.1-.1v-.5h-.2v-.2h-.1v-.1h-.3l-.1-.1v-.1h-.1v-.1h.2v-.1h-.2v-.1h-.4v-.2h-.1v-.3h.1v-.2h-.2l-.2-.1v-.2h-.2v-.2h-.2v-.2h-.1l-.1-.1c-.1-.1-.1 0-.1 0v-.1h-.1v-.1h-.3v-.3h-.2.2a.6.6 0 0 1 .1 0v-.2h-.4v-.4h-.2l-.1-.1-.1-.1h-.3l-.1-.1v-.3l-.1-.1h-.3l-.1-.1v-.1a.6.6 0 0 1 .2 0v-.1h-.2v-.2h-.1l-.1-.1h-.1v-.1h-.2v-.2h-.2v-.1l-.1-.1v-.2h-.2v-.2h-.2v-.2h-.4v-.2h-.2l-.1-.1h-.4v-.4c0-.1 0 0 0 0l-.1-.1h-.4v-.1h-.1V98h-.6v-.1l-.1-.1v-.1h-.3v-.2l-.1-.1v-.1h-.1v.2h-.2v-.2h-.2V97h-.3v-.2h-.1v-.2h-.4l-.1-.1v-.1h-.2v-.2h-.2l-.1-.2h-.2v-.2c0-.1 0 0 0 0l-.1-.2h-.1v-.2h-.7v-.2h-.2V95h-.2v-.2h-.2l-.1-.1v-.1l-.1-.1h-.1v-.2h-.5v-.1h-.2v-.3c.1 0 0-.1 0-.1h-.2l-.1-.1h-.3v-.1h-.3v-.1l-.1-.1h-.1v-.1h-.1v-.1c0-.1-.2 0-.2 0V93h-.2l-.1-.1v-.1h-.2v.1h-.2v-.1h-.2v-.2h.1v-.2h-.5v-.2h-.2V92h-.4v-.2h-.1l-.1-.1h-.1v-.1h-.2v-.2H98v-.2h-.2v.1h-.2v-.1h-.2v-.1H97v-.2h-.3v-.2h-.5v-.2H96v-.2h-.2l-.2.1v-.2h-.4v-.1H95v-.2h-.2v-.2l-.1-.1h-.1v.1c0 .1 0 0 0 0H94l-.1-.1h.2v-.1h.2l-.1-.2H94c-.1 0 0-.1 0-.1h-.7l-.1-.2H93v-.1h-.4v-.1l-.1-.1h-.2l-.1-.2H92v-.2h-.2v.1l-.1-.2h-.2l-.1-.1h-.1v-.2h-.1v-.1h-.6l-.1-.1-.1-.1h-.1v-.1h-.6l-.1-.2v-.1c0-.1 0 0 0 0V87h-.3v.1l.2.1h-.1s-.1.1-.1 0h-.1V87h-.4v-.2h-.1s0 .1 0 0h-.2v-.2h-.2c-.1 0 0 0 0 0h-.4v-.1h-.5c-.1 0 0 0 0-.1H87v-.2h.2L87 86h-.5l-.1-.1h-.2v-.2H86l-.1.1h-.1l-.1.1v-.1c0-.1 0 0 .1 0l.1-.1c0-.1 0 0 0 0l-.1-.2h-.3v.4h-.2l-.1-.1h.1v-.1H85v-.2h-.4.2v.1l-.2.1-.2-.1v-.1H84v.1h-.2l.1-.1h-.5c-.1 0 0 0 0 0l-.1-.1.1-.1h-.1l-.1-.1c-.1 0 0 0 0 0l-.2.1-.2.1-.1-.1h-.2V85h-.2l-.2.1H82l-.1-.1h.2v-.1h-.4v.1h-.4l-.2-.1c0-.1 0 0 0 0v-.2H81l-.1.1v-.2h-.2v.1h-.2l-.2-.1h-.1l-.1-.1h-.2v-.2h-.3c-.1 0 0 0 0 0h-.2l-.1-.2h.2v-.2h.1l.1-.1h.3l.2-.1h.2l.1-.1h.5-.1v-.1h.2v.1h.1v.2h.2v-.2h-.2.1l.1-.1h.2c.1 0 0 0 0 0h.6v.1H82v.2h.5l.1-.1h.1v.1h.5c.1 0 0 .1 0 .1h.7v.1h.2v-.1h.1l.1.2c.1 0 0 0 0 0h.2l.2-.1.1.1h.2l.1-.1.1.1h.2v.1h.2l.2-.1.1.1.2.2v-.1h.1V84h.1v.1l.1.1h.1v.2h.2l.2-.1h.1l.1.2v.2h.2v-.2h.2l.1.2h.2l.2.1v.1l.1.1c0 .1 0 0 0 0v.2h.2l-.1-.1c0-.1 0 0 0 0h.4v.1h.7l.1.1H89l.2.2h.5l.2.2h-.1.1l.1.2h.1v-.2l.1.1h.2-.1v.2h.4v.2h.5l.1.1h.1c.1 0 0 0 0 0h.2v.2h.2v.2h.2l.1.1h.3l.1.1v.2h.2V87h.2v.1h.2l.1.1c0 .1 0 0 0 0h.2l.1.1v.1l.1.1h.5v.2l.1.1h.3v-.1l.1.1v.5h.2v.1h.5v.1h.2l.1.2c.1 0 0 0 0 0h.2v.2h.2v-.2h.1l.2.1v.1h.1v.1h.2v.1h-.2v.1l.1.1h.5l.1.1v.1h.4v.2h.2v-.1h.2v.2h.2l.1.1h.3v.2h.4v.2h.4v.1h.2v.2l.1.1h.1c0-.1 0 0 0 0h.2s0-.1 0 0h.1v.2h.1v.1h.2l-.1-.2h.1l.1.1c0 .1 0 0 0 0v.2h.1v.1l.1.1h.1v.1h.6-.2v.2h.1v.2h.4l.1.2h.4-.1v.1h.2v.1h.2v.1h.1v.1l.1.1h.2l.1.1h.1v.1l.1.1h.5v.2h-.1v.2h.2v.1h.2l.1.1h.1V93h.1v.1l.1.1v.2h.1v.1h.4v.1l.1.1h.1l.1.1h.1v.1h.3v.1h.2v.1h.2v.2h.2l.1.1v.2h.2v.1h.3a.5.5 0 0 0 0 .2h.1c0 .1 0 0 0 0v.2c0 .1 0 0 .1 0 0 .1.1 0 .1 0v.2h.5v.2c.1 0 .2.1.2 0h.1v.2h.3c.1 0 0 .2 0 .2h.4v.2h-.4.1v.2h.8v.1h.1v.1h.1v.1h.2v.4h.4v.2h.1v.1h.3v.2h-.2v.1h.5v-.2h.1v.4h.2v.3l.1.1v.1h.1v.1h.4v.1h.2v.2h.1v.2h.2v.2h.4a.5.5 0 0 0 0 .1v.2h.2v.2h.2v.2c0 .1 0 0 0 0-.1 0 0 .1 0 .1l.1.1a.6.6 0 0 1 .1 0v.1h.2v.2h.2v.2l.2.1h.2v.2h.1v.2h.5v.4c0 .1 0 0 0 0v.2h.1v.2h.3v.2h.2v-.1.1h.2v.2h-.1v.2h.2a1 1 0 0 0 0 .2h.2v.1l.1.1c-.1 0 0 .1 0 .1h-.2v.1h.2v.1h.2v-.1h.1v.2l.1.1h.3v.1h.1v.2h.2v.2h-.1v.1h.2c.1 0 0 .1 0 .1h.2v.5h.2l.3.1v.2h-.1v.4h.3l.1.1v-.1a.6.6 0 0 1 .1 0v.1h.1v.2h-.2v.2h.1v.1h.1c.1.1 0 .2 0 .2h.2v.3h.2v.1h-.1v.1h.2v.2h.2a.6.6 0 0 1 0 .1v.1h.2v.2h.2v.2h.2a.6.6 0 0 1 0 .1v.1h.2v.7h.2v.2h-.1l.2.1h.1l.1.1v.2h.1l.1.1v.2h.1v.1h.1v.2h.1l.1.1v.1h.1v.1h-.2v.1l.2.1h.1l.1.1h.1v.4a.2.2 0 0 1 .1 0l.1.1v.1h.1v.2h-.2v.1l.2.1h.1v.3h.1v.4h.1l.1.1v.1h.1v.2h.1l.1.1h.1v.2h-.2v.1l.2.1h.1v.1l.1.1h.1v.2h.1v.2h.1v.2h.2v.7h.2v.2h-.1l-.1-.1v.1h-.1l-.1.2h.1c.1 0 0 0 0 0h.1a.2.2 0 0 1 .1 0h.1l.1.1c.1 0 0 0 0-.1l.2.1v.2h-.2v.1l.2.1v.4h.4l.1.1v.1h-.1v.4h.1v.5l-.8-.2zm0 .2.1.1v-.2zm-11.1-16.5h-.1.1zm-4.2-4h.1v-.1h-.2v.2h.1v-.1zm-9.1-4.3h-.1.2-.1zm-1.7-3v.2-.2zm19.4 18.5s0-.1 0 0zm1.2-.7.1.1v-.2h-.2.1zm2.7 6.3h.1zM99.8 92.5v-.1zM96 88.3h-.2v-.1h-.1v.2h.2zM108.5 99v-.1.1zm6.2 6v.1-.1zm31.7-58.6-.1-.2h-.1V46l.1-.1.2.2h.1v-.7c0-.1 0 0 0 0 0-.1.2-.1.1-.2h-.2l-.1-.1.1-.2h.1l-.1-.2h-.1l-.1-.1h-.1v-.2l-.1-.1v-.1l.1-.1h.1v-.4l-.2-.1v-.2h-.2V43h-.2v-.5h-.2v-.1h-.2v-.1h-.2v-.1h-.1V42h-.2l-.1-.2h-.1l-.1-.2h.1c.1 0 0-.1 0-.1v-.2h-.2v.4h-.2a.3.3 0 0 0 0-.2h-.2v.2h-.4v-.2h.1l.2-.1-.2-.2a1 1 0 0 0-.2 0v.1l-.2.1h-.2v-.1h-.2c-.1 0 0 0 0 0l-.2.1-.1-.2-.1.1-.1-.1c-.1 0 0 0 0 0l-.2.1h-.1c-.1 0 0 0 0 0v-.2h-.1l-.1.2h-.2v-.1l-.1.1c-.1.1 0 0 0 .1v.2l-.2-.1h-.1v-.2h-.1v-.1l.1-.1-.2.1v.1l-.1.1h-.2c-.1 0 0 .1 0 .1h-.2v-.1h-.3v-.2l-.2-.1.1.2v.1l.1.1h-.1c-.1 0 0 .1 0 .1h-.1l-.1-.1v-.2l-.1.1-.1.2v.2-.1h-.2v-.1h-.3l-.1.2h-.2v-.1l-.1.2h-.1l-.1-.1c-.1 0 0 0 0 0h-.2v.1h-.2l-.1.1h-.2v.4h-.2v-.1l-.1.1v.1h-.2v.1h-.2v.3h-.1l-.1-.1v-.2h-.2c-.1 0 0 0 0 0h-.4v.2h.2v.2h-.6v.2h-.2v.2h-.2v.2h-.2l-.1-.1v-.1h-.1c-.1 0-.1-.1-.1 0v.4h-.2c0 .1-.2 0-.2 0v.4h-.2v.2h-.2v.2h-.2v.4-.1h-.2l-.1-.1v.4h-.2v.2-.2h-.2v.1c0 .1-.1 0-.1 0v.1c0 .1-.1 0-.1 0v.1h-.2v.5h-.2v-.2h-.1v.4h-.3V46v.4h-.2v.2h.1v.2h-.1v-.2h-.3v.2l.1.2h-.1v.2h-.2v-.5h-.2v.2l.1.1h-.1a.5.5 0 0 0 0 .1v.2h-.2v.5h.1c0 .1.1 0 .1 0v.2h-.2v-.1h-.5v.1l2.2.3h.3V48h.4-.2l-.1-.3h.1l.1.1h.1c.1 0 0 .1 0 .1h.2v-.4h.1v-.1h.2v-.6.2h.4v-.2h.4-.1v-.2h.2v-.2.1h.2v-.2h.1l.1.1a.6.6 0 0 1 .1 0v-.2h.1V46h.2v-.2h.1v-.3h.1v-.1h.2v.4l.1.1v-.2h.1c.1 0 0 0 0 0h.1v-.4c-.1 0 0-.1 0-.1h.1l.1.1h.2c.1 0 0 0 0 0h.1v-.1h.1a.4.4 0 0 1 .1 0v-.1l.1-.1h.2v-.2h.2l.2.1h.1v-.2h.5v.1h.2v-.3h.4v-.1h.1v-.2h.1v.1h.2-.1V44h.1a1 1 0 0 0 .2 0v.2h.4V44h.2l.1.2V44h.2v-.2h.4v.2h-.1v.1h.1c.1 0 0 0 0 0h.2c.1 0 0 0 0-.1v-.2l.1.1h.1l.1-.1.2.1.1-.1h.1l.1.2v-.1h.1v-.1h.1l.2-.1v.1l.2-.2v.5h.2l.1-.1.2-.2v.1c0 .1 0 0 0 0v.2-.1l.1.1c0 .1 0 0 0 0v.2l.2-.1v.2h.1v.1h.6v.2h.1v.2h-.2v.1h.4v.1l-.1.1h.2l-.1.1v.1h-.2v.2h.3-.1v.4l.1.1c0 .1 0 0 0 0l-.2.1-.1.1.1.1h.2l.1-.1c.1 0 0 0 0 0v.1h-.1l-.1.1c-.1.1 0 0-.1 0l-.1.1c0 .1 0 0 0 0h.2v.1h.1v.1h-.2v.4c0 .1 0 0 0 0v.1h.1v.1l.2.1h-.8v.3l.1.1v.2h-.4v.2l.1.1v.2l-.1.1v.1c0 .1 0 0 0 0l.1.2v.1h-.1v.1h-.2a.3.3 0 0 0 0 .1l.1.1h-.2v.1h-.1v.3h-.1v.3h-.1v.2h-.1c0-.1-.1 0-.1 0V50h-.1v.4a.5.5 0 0 0 0 .1h-.2v-.1h-.1v.5c0 .1 0 0 0 0-.1.1 0 .2 0 .2h-.4l.1.1v.1h.1v.2l-.2-.1v-.2l-.1-.1c0 .1 0 0-.1 0v.4h-.1v.2h-.2v.1h-.2v.2h-.2v.4h-.2v-.2h-.1c-.1 0 0 0 0-.1h-.2v.1c-.1 0 0 .1 0 .1h-.2l.1.1v.4-.1h-.2v-.2h-.2v.4l.7 1.4h.2v-.1c.1 0 0 0 0-.1v-.2.1c0 .1.1 0 .2 0h.2v-.1h.2v-.3h-.1v-.1h.2l.2.1v-.2h-.2V53h.2v.3h.5v-.5h.3v.2h.1c0-.1.1 0 .2 0v-.2h-.2v-.1h.2v-.3c.1 0 0-.1 0-.1h.3v.1h.2v-.5h.2v-.4h.3v-.1l-.1-.2h.3v-.4.1h.5c0-.1 0 0 0 0v-.4h.3v-.2h.1v-.4h.4v-.1h.2v-.2h-.1l-.1-.2.1-.1h.5l-.1-.2V49h.3-.1v-.1l-.1-.1h-.1v-.1l-.1-.1v-.1h.1v.2h.2c.1 0 0 0 0 0v-.4h.2V48l-.2-.2h.1l.1-.1c.1 0 0 0 0 0h.2v-.2l-.1-.1v-.2h.1v-.1c0-.1 0 0 0 0V47c-.3-.5-.2-.5-.2-.6zm-8.1-4.6-.1.1h.1zm-.6.4h-.3l.1.1h.1v-.1zm9 4.3h-.3v.2h.4v-.2zm-4.6-3v-.2.1zm1.6 4.4h.1-.1zm.6 3v-.2h-.2v.2h.2zm-3.3-7.4v.2-.1l.1-.1v-.1l-.1.1z"/></svg>